<mxfile host="app.diagrams.net" modified="2023-05-14T13:38:40.424Z" agent="Mozilla/5.0 (Windows NT 10.0; Win64; x64) AppleWebKit/537.36 (KHTML, like Gecko) Chrome/113.0.0.0 Safari/537.36" etag="qPRSNqLm6PiPBvVijH-N" version="21.3.0" type="device">
  <diagram name="Страница 1" id="u4gFz5CzRfuBe4S3-UB7">
    <mxGraphModel dx="2074" dy="1148" grid="1" gridSize="10" guides="1" tooltips="1" connect="1" arrows="1" fold="1" page="1" pageScale="1" pageWidth="827" pageHeight="1169" math="0" shadow="0">
      <root>
        <mxCell id="0" />
        <mxCell id="1" parent="0" />
        <mxCell id="jWtTo9rWr390xSzO7epJ-3" style="edgeStyle=orthogonalEdgeStyle;rounded=0;orthogonalLoop=1;jettySize=auto;html=1;entryX=0.5;entryY=0;entryDx=0;entryDy=0;" edge="1" parent="1" source="jWtTo9rWr390xSzO7epJ-1" target="jWtTo9rWr390xSzO7epJ-2">
          <mxGeometry relative="1" as="geometry" />
        </mxCell>
        <mxCell id="jWtTo9rWr390xSzO7epJ-1" value="Начало&lt;br&gt;freeTree" style="ellipse;whiteSpace=wrap;html=1;" vertex="1" parent="1">
          <mxGeometry x="354" y="10" width="120" height="80" as="geometry" />
        </mxCell>
        <mxCell id="jWtTo9rWr390xSzO7epJ-5" style="edgeStyle=orthogonalEdgeStyle;rounded=0;orthogonalLoop=1;jettySize=auto;html=1;entryX=0.5;entryY=0;entryDx=0;entryDy=0;" edge="1" parent="1" source="jWtTo9rWr390xSzO7epJ-2" target="jWtTo9rWr390xSzO7epJ-4">
          <mxGeometry relative="1" as="geometry" />
        </mxCell>
        <mxCell id="jWtTo9rWr390xSzO7epJ-12" value="TRUE" style="edgeStyle=orthogonalEdgeStyle;rounded=0;orthogonalLoop=1;jettySize=auto;html=1;" edge="1" parent="1" source="jWtTo9rWr390xSzO7epJ-2">
          <mxGeometry x="-0.8748" relative="1" as="geometry">
            <mxPoint x="414" y="440" as="targetPoint" />
            <Array as="points">
              <mxPoint x="321" y="150" />
            </Array>
            <mxPoint as="offset" />
          </mxGeometry>
        </mxCell>
        <mxCell id="jWtTo9rWr390xSzO7epJ-2" value="!Node" style="rhombus;whiteSpace=wrap;html=1;" vertex="1" parent="1">
          <mxGeometry x="374" y="110" width="80" height="80" as="geometry" />
        </mxCell>
        <mxCell id="jWtTo9rWr390xSzO7epJ-7" style="edgeStyle=orthogonalEdgeStyle;rounded=0;orthogonalLoop=1;jettySize=auto;html=1;entryX=0.5;entryY=0;entryDx=0;entryDy=0;" edge="1" parent="1" source="jWtTo9rWr390xSzO7epJ-4" target="jWtTo9rWr390xSzO7epJ-6">
          <mxGeometry relative="1" as="geometry" />
        </mxCell>
        <mxCell id="jWtTo9rWr390xSzO7epJ-4" value="&lt;div style=&quot;font-size: 14px; line-height: 19px;&quot;&gt;&lt;span style=&quot;background-color: rgb(255, 255, 255);&quot;&gt;freeTree(Node-&amp;gt;left)&lt;/span&gt;&lt;/div&gt;" style="rounded=0;whiteSpace=wrap;html=1;" vertex="1" parent="1">
          <mxGeometry x="354" y="210" width="120" height="60" as="geometry" />
        </mxCell>
        <mxCell id="jWtTo9rWr390xSzO7epJ-9" style="edgeStyle=orthogonalEdgeStyle;rounded=0;orthogonalLoop=1;jettySize=auto;html=1;entryX=0.5;entryY=0;entryDx=0;entryDy=0;" edge="1" parent="1" source="jWtTo9rWr390xSzO7epJ-6" target="jWtTo9rWr390xSzO7epJ-8">
          <mxGeometry relative="1" as="geometry" />
        </mxCell>
        <mxCell id="jWtTo9rWr390xSzO7epJ-6" value="&lt;div style=&quot;font-size: 14px; line-height: 19px;&quot;&gt;&lt;span style=&quot;background-color: rgb(255, 255, 255);&quot;&gt;freeTree(Node-&amp;gt;right)&lt;/span&gt;&lt;/div&gt;" style="rounded=0;whiteSpace=wrap;html=1;" vertex="1" parent="1">
          <mxGeometry x="354" y="290" width="120" height="60" as="geometry" />
        </mxCell>
        <mxCell id="jWtTo9rWr390xSzO7epJ-11" style="edgeStyle=orthogonalEdgeStyle;rounded=0;orthogonalLoop=1;jettySize=auto;html=1;entryX=0.5;entryY=0;entryDx=0;entryDy=0;" edge="1" parent="1" source="jWtTo9rWr390xSzO7epJ-8" target="jWtTo9rWr390xSzO7epJ-10">
          <mxGeometry relative="1" as="geometry" />
        </mxCell>
        <mxCell id="jWtTo9rWr390xSzO7epJ-8" value="&lt;font style=&quot;font-size: 14px;&quot;&gt;free(Node)&lt;/font&gt;" style="rounded=0;whiteSpace=wrap;html=1;" vertex="1" parent="1">
          <mxGeometry x="354" y="370" width="120" height="60" as="geometry" />
        </mxCell>
        <mxCell id="jWtTo9rWr390xSzO7epJ-10" value="Конец" style="ellipse;whiteSpace=wrap;html=1;" vertex="1" parent="1">
          <mxGeometry x="354" y="460" width="120" height="80" as="geometry" />
        </mxCell>
      </root>
    </mxGraphModel>
  </diagram>
</mxfile>
